<svg id="Layer_1" data-name="Layer 1" xmlns="http://www.w3.org/2000/svg" viewBox="0 0 466.8 460"><title>pizza</title><path d="M261.6,9.9c34.1-2.8,65.8,2,93.2,25.7,10.1,8.8,22.1,15.8,32.5,24.6,40.1,34.2,62.2,78.9,77.6,128.3,10.1,32.5,12.7,64.9,10.5,98.6-1.3,20.3-10,37-18.8,54.2-22,43-51.6,78.6-95.8,100.4-37.3,18.4-76,29.2-118.1,27.2-25.7-1.2-51.5-.9-76.7-5.9-53-10.5-92.3-40.7-119.9-86.9-18.7-31.1-25.2-65.9-31.7-100.7-5-27.1-8.3-54.2.1-81.2,14-45.1,32-88.5,68-120.6,28.9-25.8,62.1-46.3,99.3-58.4,17-5.6,35.5-3.8,53.4-5.2C244,9.4,252.8,9.9,261.6,9.9ZM24.8,239.9c-2.9,118.7,97.8,216.2,213.6,217.9,126.2,1.8,222.4-98.3,223.5-217.1C463,118,363.1,20.9,242.9,20,124.6,19.2,20.5,120.9,24.8,239.9Z" transform="translate(-9.4 -9.2)" style="fill:#bd7636"/><path d="M24.8,239.9C20.5,120.9,124.6,19.2,242.9,20c120.2,0.8,220.1,98,219,220.6-1.1,118.8-97.2,218.9-223.5,217.1C122.6,456.1,21.9,358.5,24.8,239.9Zm18.9,46C42.7,302.2,48,316.4,57,329.5a244.8,244.8,0,0,1,21.4,37.4c6.9,15.2,18.1,26.4,35.7,29.9,9.6,1.9,19.3,4.6,26.1,12.6,8.9,10.5,20.7,15.3,33.7,17.9a136.8,136.8,0,0,1,21.3,5.7c26.7,10.1,54,11.3,81.7,5.9a28.1,28.1,0,0,0,8.9-3.1c13.2-7.9,27.9-11.2,42.8-14.1,20.4-4,37.9-12.9,50.4-30,14.5-19.9,30.9-38.2,46.5-57.2,7.6-9.3,11.6-20.5,10-32.2-3-22.2-1.6-43.9,2.5-65.8,4.6-24.1,3.9-47.5-11.2-68.6-3.5-4.9-5.1-10.6-5.5-16.8-0.9-14.1-7.5-25.1-19-33.7a119.8,119.8,0,0,1-26.5-27c-10.2-14.5-23.9-24.5-40.4-30.8-25.1-9.5-51.4-14-77.3-20.2-17.9-4.3-34.6-3.4-51.2,4.1-2.8,1.3-6.3,2.8-9.1,2.4-24.4-4.1-40.4,16.4-61.8,20.8a3.8,3.8,0,0,0-2.5,1.8c-5,14.1-19.6,19.6-27.7,31-9.6,13.6-20.9,25.5-33,36.9-6.6,6.2-9.9,14.3-12.4,22.9C48.9,200.6,50.2,243.8,43.8,285.9Z" transform="translate(-9.4 -9.2)" style="fill:#d59a43"/><path d="M43.8,285.9c6.5-42.1,5.1-85.3,17-126.8,2.5-8.6,5.8-16.6,12.4-22.9,12-11.4,23.3-23.4,33-36.9,8-11.3,22.6-16.8,27.7-31a3.8,3.8,0,0,1,2.5-1.8c21.4-4.4,37.4-25,61.8-20.8,2.8,0.5,6.2-1.1,9.1-2.4,16.6-7.5,33.3-8.4,51.2-4.1,25.9,6.3,52.2,10.8,77.3,20.2,16.6,6.3,30.2,16.3,40.4,30.8a119.8,119.8,0,0,0,26.5,27c11.5,8.6,18,19.6,19,33.7,0.4,6.2,2,11.9,5.5,16.8,15.1,21.1,15.8,44.5,11.2,68.6-4.2,21.8-5.5,43.6-2.5,65.8,1.6,11.8-2.4,22.9-10,32.2-15.6,19-32,37.3-46.5,57.2-12.4,17.1-30,26-50.4,30-14.8,2.9-29.5,6.2-42.8,14.1a28.1,28.1,0,0,1-8.9,3.1c-27.7,5.4-55,4.3-81.7-5.9a136.8,136.8,0,0,0-21.3-5.7c-13.1-2.7-24.8-7.4-33.7-17.9-6.8-8-16.5-10.7-26.1-12.6-17.6-3.5-28.8-14.7-35.7-29.9A244.8,244.8,0,0,0,57,329.5C48,316.4,42.7,302.2,43.8,285.9ZM246.2,406.1c13.5-1.6,26.3-2.4,37.5,6.6,6.4,5.1,14.1,6.3,20.8,2.1,12.5-7.7,26-11.7,40.2-14.7,6-1.2,12.4-5.5,11.3-12.1-2.8-16.4,7.5-22.7,19.2-28.5,3.9-1.9,8.5-3.5,8.6-8.3,0.2-9.3,5.8-15.7,11.1-22.1,8.2-9.7,12.1-20,8.5-33-2.7-9.7-.8-18.9,8.4-25.2,7.3-5.1,8.4-12.6,4.7-19.7-7.3-13.8-6.3-27.7-3.4-42.1,4.7-23.7,1.3-46.3-16.3-63.5-13.4-13.1-21.8-27.9-27.2-45.4s-16.8-26.1-36-22.1C323,80.3,316,77,309,70.7s-14.2-10-23.4-11c-6.6-.7-13.4-1.4-19.7-3.4-11.3-3.5-21-.2-27.4,8.3-9.1,12.1-19.1,10.7-30.4,5.1-6.9-3.5-13.3-3.3-19.7,1.5-4.8,3.6-10,6.9-16.1,7.5C157.7,80.4,150.1,89,147.3,103c-1.9,9.2-6.9,14.2-17.2,15.1-14.1,1.2-25.4,7.5-30.1,22.5a26.5,26.5,0,0,1-6.1,9.7c-9.2,9.8-13.5,21.1-12.1,34.6,0.7,6.3-1.4,11.8-6.9,15.6-9.4,6.5-11.9,16.2-11.7,26.8s1.5,19,6.8,27.3a49.4,49.4,0,0,1,7.7,33.2c-0.8,7.4-.5,15,3.2,21.6a90.1,90.1,0,0,1,11.3,38c0.3,4.7,1.8,7.8,6.8,9.3s10.4,6.1,13.4,11.4c9.3,16.5,31.7,17.9,40.3,36.3,2.9,6.2,15.1,6,23.7,3.6,4.7-1.3,9.6-2.1,14.3-3.8,9.6-3.4,17.9-1.7,25.4,4.9a97,97,0,0,0,8.4,6.3C237.4,424.6,242.3,422.7,246.2,406.1Z" transform="translate(-9.4 -9.2)" style="fill:#a2281e"/><path d="M246.2,406.1c-4,16.6-8.8,18.5-21.8,9.5a97,97,0,0,1-8.4-6.3c-7.6-6.6-15.9-8.3-25.4-4.9-4.6,1.6-9.5,2.5-14.3,3.8-8.6,2.4-20.8,2.6-23.7-3.6-8.6-18.4-31-19.8-40.3-36.3-3-5.3-7.5-9.6-13.4-11.4s-6.4-4.6-6.8-9.3a90.1,90.1,0,0,0-11.3-38c-3.7-6.7-4-14.2-3.2-21.6A49.4,49.4,0,0,0,70,254.7c-5.3-8.3-6.5-17.8-6.8-27.3s2.3-20.3,11.7-26.8c5.5-3.8,7.5-9.2,6.9-15.6-1.4-13.5,2.9-24.8,12.1-34.6a26.5,26.5,0,0,0,6.1-9.7c4.6-15,16-21.2,30.1-22.5,10.3-.9,15.3-5.9,17.2-15.1,2.8-14,10.4-22.6,25.1-24.2,6.1-.7,11.3-4,16.1-7.5,6.4-4.8,12.8-5,19.7-1.5,11.3,5.7,21.2,7.1,30.4-5.1,6.4-8.5,16.1-11.8,27.4-8.3,6.3,2,13.1,2.6,19.7,3.4,9.2,1,16.7,4.9,23.4,11s14,9.7,24.7,7.5c19.2-3.9,30.2,3.4,36,22.1s13.8,32.3,27.2,45.4c17.7,17.3,21.1,39.8,16.3,63.5-2.9,14.4-3.9,28.3,3.4,42.1,3.7,7,2.6,14.6-4.7,19.7-9.2,6.4-11.1,15.5-8.4,25.2,3.6,13-.3,23.3-8.5,33-5.4,6.4-10.9,12.7-11.1,22.1-0.1,4.8-4.7,6.4-8.6,8.3-11.8,5.8-22.1,12.1-19.2,28.5,1.1,6.6-5.3,10.8-11.3,12.1-14.2,3-27.7,7-40.2,14.7-6.7,4.1-14.4,3-20.8-2.1C272.5,403.6,259.8,404.5,246.2,406.1Zm38.5-3.3c5,9.1,13.3,8.5,20,4.4A92.7,92.7,0,0,1,340,394.4c6.6-1,8.8-4.6,8.2-11-0.7-7.9,3.5-13.9,8.3-19.8s13.7-9.4,20.8-13.3c-0.4-12.2,7.5-19.7,14.1-27.7,8.3-10.1,9.1-20.8,1.6-29.6v-2.1c3.2-7.1,2.9-16.3,10.3-20.9,9.8-6.1,8.9-13.6,4.6-22.3s-6.7-18.3-3.1-28.2a4.1,4.1,0,0,0-1.3-4.7c2.7-7.8,4.6-15.6,3.5-23.9,1.9-15.4-3.2-29.3-13.8-39.3-15.2-14.3-24.7-30.9-30.5-50.6-4-13.8-14.8-19.5-28.6-16-10.2,2.6-18.3.3-26.2-6.3C302.1,74,297,68.2,289.2,67l-27.9-4.2c-8.1-1.2-14.2,2.2-19.5,8C230.1,83.6,225.5,84.9,210,78c-8.4-3.7-15.3-3.2-22.5,2.3-3.6,2.7-7.7,5.6-12.4,5.5-13.3-.3-18.5,8-21.3,19.1s-8.2,18.5-21.1,19.8c-9.4,1-20.4,2.5-24,13.9-2.3,7.3-6.4,13.4-11.1,18.8-6.9,8-10,16.8-9.1,27.1s-2.3,15.7-9,21.3c-3.8,3.2-7.4,6.9-7.8,12.1-1,13-1.1,26.1,6.5,37.6,2,2.9,4.5,5.8,4.5,9.4,0.1,22.9,3.8,45,14.1,65.8,0.4,0.9,0,2.1.2,3.1,1.7,8.3,2,16.8,11.9,21.3,5,2.3,8.9,7.7,12.1,13,2.2,3.6,5.8,9,8.9,8.2,13-3.1,15.8,7.3,19.7,14.5s10.4,10.5,17.7,11.4c4.6,0.6,9.6-1.3,14.2-2.8,16.5-5.4,31.6-4.7,44.7,8.5,2.5,2.5,5.8,6.6,10.9,4.4,2.7-13.8,2.7-13.6,17.5-13.9,5.1-.1,10.6,1.6,15.4-1.4Z" transform="translate(-9.4 -9.2)" style="fill:#f9b766"/><path d="M403.3,214.8a4.1,4.1,0,0,1,1.3,4.7c-3.6,9.9-1.3,19.2,3.1,28.2s5.3,16.2-4.6,22.3c-7.4,4.6-7.1,13.8-10.3,20.9-2-16.9-18-23.2-30-24.6-14.2-1.6-31.3,9.9-35.9,22.8-7.7,21.4,4.7,39.7,27.1,40.3s33.1-7.6,37.7-27.1A86.6,86.6,0,0,0,393,293c7.4,8.8,6.7,19.5-1.6,29.6-6.6,8-14.4,15.5-14.1,27.7-7.1,3.9-15.2,6.5-20.8,13.3s-9,11.9-8.3,19.8c0.5,6.4-1.7,10-8.2,11a92.7,92.7,0,0,0-35.3,12.7c-6.7,4.1-15,4.8-20-4.4l7.4,0.3c19.1,0.3,33.9-12.4,35.1-30.1,1.6-23.1-6.2-32.5-29.6-35.6-2.1-.3-4.1-0.8-6.2-1.1-8.9-1.1-16.5,1.1-22.8,7.8-15.5,16.4-15,37,1.4,53-4.9,3-10.3,1.4-15.4,1.4-14.7.3-14.7,0.1-17.5,13.9-5,2.2-8.4-2-10.9-4.4-13.2-13.2-28.2-13.8-44.7-8.5-4.6,1.5-9.7,3.3-14.2,2.8-7.2-.9-13.5-3.7-17.7-11.4s-6.7-17.7-19.7-14.5c-3.2.8-6.8-4.7-8.9-8.2-3.2-5.2-7-10.7-12.1-13-9.9-4.5-10.2-13-11.9-21.3-0.2-1,.2-2.3-0.2-3.1C86.4,310,82.7,287.9,82.6,265c0-3.5-2.5-6.4-4.5-9.4-7.7-11.6-7.5-24.6-6.5-37.6,0.4-5.2,4-8.9,7.8-12.1,6.7-5.6,9.7-12.5,9-21.3s2.2-19.1,9.1-27.1c4.7-5.5,8.8-11.5,11.1-18.8,3.6-11.4,14.7-12.9,24-13.9,12.9-1.4,18.3-8.7,21.1-19.8s8-19.4,21.3-19.1c4.6,0.1,8.8-2.7,12.4-5.5,7.2-5.5,14.2-6.1,22.5-2.3,15.5,6.9,20.1,5.6,31.7-7.2,5.3-5.8,11.4-9.2,19.5-8L289.2,67c7.8,1.2,12.9,7,18.5,11.6,7.9,6.6,16,8.9,26.2,6.3,13.8-3.5,24.6,2.2,28.6,16,5.8,19.7,15.3,36.4,30.5,50.6,10.7,10.1,15.7,23.9,13.8,39.3-8.7-21-27.5-28.1-48.9-25.2-12.1-14.5-35.4-18.5-50.9-8.7-12.3,7.7-18.3,28-12.2,41.2,8.3,18.1,26.6,25,47.8,17.5C361.3,233.6,389.6,233.2,403.3,214.8ZM208.4,311c0.7,5.7-3.2,9.2-6.1,13.2-23.1,5.6-28.8,14.1-26.5,39.7,1.6,18,15.9,30.8,33.8,30.3s31.9-13.6,32.8-32.6c0.5-11.3-2.8-20.7-10.6-28.6,4-6.9,14.1-5.8,18-13.5-8.9-3.3-17.1-7.5-22.2-15.8,11.3-12.7,11.2-35.5-.3-48.7-8.8-10.1-29.7-13.9-41.8-7.5s-15.4,20.7-12,35.4C177.9,301.7,190.5,309.2,208.4,311ZM196.8,179.2c-1.9,4.1-4.2,8.1-5.7,12.4-5.8,16.2-.5,32.7,12.2,38.2,15,6.5,28.7,4,40.9-6.7s14.4-26.1,7.1-40.1-15.9-17.1-33.4-13.4l-5.1,1.2c-0.8-6.2,4.9-10.6,4.5-16.7,13.6-4.7,22.3-16.1,23.2-30.4S233.6,95.7,223,91s-32.5-3.2-41.3,5.6c-14.8,14.7-15.2,33.8.1,54-1.7,7.6-8.1,12.4-13,20.4C180.5,169.5,190.3,169.5,196.8,179.2Zm83.9-30.5c6.4,1.1,12.4,4.1,19.5,1.6,21.5-7.4,28.7-25.2,18.1-45.9-6.4-12.5-22.2-21.3-34.6-19.2-16.3,2.7-25.7,12.2-28.1,28.2-1.7,11.3,5.3,19.1,10.9,27.4a24.2,24.2,0,0,0-12.2,5.6c5.4,3.7,9.4,8.5,13.8,14Zm-9.1,100,0.8,11.8c-19.3,13.7-26.3,31.5-18.9,46.9,8.3,17.3,17.1,20.5,36.3,16.4s27.2-20.8,24.6-50c12.6-8.9,19.6-20.6,15.8-36.8,0.8-4.3,4.7-7.7,4.3-12.6-4.5-2.6-8.1,1.2-12.1,1.4-18.3-9.3-29.3-7.7-46.2,10.2-6.4-.7-8.1,3.6-9.4,8.6S269.2,248.2,271.6,248.7ZM111.4,297.5c-16.2,13.9-12.5,38-2.7,48.8,12.9,14.1,31.9,16.9,45.5,6.8,6.6-4.9,10.1-11.7,11.8-19.4,2.8-12.8-4.9-22.3-11.4-31.8,13.2-15.9,13.3-29.7.9-42.7-8.2-8.6-33-8.6-43.1-.1S102.4,283.2,111.4,297.5ZM133,233.3c19.2,1.8,33.2-18.1,33.2-34.6s-16.9-32.8-34.8-32.6-36.3,15.8-36.1,32.8C95.4,220.5,109.8,233.7,133,233.3Zm165.3-76.7c-1-1.7-1.9-2.7-3.4-2.2a1.4,1.4,0,0,0-.6,2.3C295.3,157.8,296.6,157.9,298.3,156.6Z" transform="translate(-9.4 -9.2)" style="fill:#fccf97"/><path d="M403.3,214.8c-13.7,18.4-42,18.8-60.6.9-21.2,7.5-39.5.5-47.8-17.5-6.1-13.3-.1-33.5,12.2-41.2,15.5-9.7,38.7-5.8,50.9,8.7,21.4-2.9,40.2,4.2,48.9,25.2C407.9,199.2,406,207,403.3,214.8Z" transform="translate(-9.4 -9.2)" style="fill:#a2281e"/><path d="M269.9,397.1c-16.4-16-16.8-36.6-1.4-53,6.4-6.7,14-8.9,22.8-7.8,2.1,0.3,4.1.8,6.2,1.1,23.4,3.1,31.3,12.5,29.6,35.6-1.3,17.8-16,30.4-35.1,30.1l-7.4-.3Z" transform="translate(-9.4 -9.2)" style="fill:#a2281e"/><path d="M393,293a86.6,86.6,0,0,1-1.2,9.4c-4.5,19.4-16,27.6-37.7,27.1s-34.8-18.9-27.1-40.3c4.6-12.8,21.7-24.4,35.9-22.8,12.1,1.3,28.1,7.7,30,24.6V293Z" transform="translate(-9.4 -9.2)" style="fill:#a2281e"/><path d="M111.4,297.5c-9-14.3-8.5-30.4.8-38.3s34.9-8.4,43.1.1c12.5,12.9,12.3,26.7-.9,42.7,6.5,9.4,14.2,18.9,11.4,31.8-1.7,7.7-5.2,14.5-11.8,19.4-13.6,10.1-32.6,7.3-45.5-6.8C98.9,335.6,95.3,311.5,111.4,297.5Z" transform="translate(-9.4 -9.2)" style="fill:#a2281e"/><path d="M330.2,237c3.8,16.2-3.1,27.9-15.8,36.8,2.6,29.2-4.8,45.8-24.6,50s-28,.9-36.3-16.4c-7.4-15.4-.4-33.3,18.9-46.9l-0.8-11.8,4.5-12.7C293,218,304,216.4,322.3,225.7,325.6,229,328.6,232.5,330.2,237Z" transform="translate(-9.4 -9.2)" style="fill:#a2281e"/><path d="M231.8,333c7.8,8,11,17.4,10.6,28.6-0.8,19-13.6,32.2-32.8,32.6s-32.2-12.4-33.8-30.3c-2.3-25.6,3.3-34.1,26.5-39.7C213.3,323.1,223.2,325.8,231.8,333Z" transform="translate(-9.4 -9.2)" style="fill:#a2281e"/><path d="M181.8,150.6c-15.3-20.2-14.8-39.3-.1-54,8.8-8.8,31-10.1,41.3-5.6s18.2,19.3,17.4,32.6-9.6,25.7-23.2,30.4l-6.4-.2-2.4.6a2.4,2.4,0,0,0-1.7,1H193.9Z" transform="translate(-9.4 -9.2)" style="fill:#a2281e"/><path d="M133,233.3c-23.2.3-37.6-12.8-37.8-34.4-0.1-17,17.1-32.6,36.1-32.8s34.9,15.4,34.8,32.6S152.2,235.1,133,233.3Z" transform="translate(-9.4 -9.2)" style="fill:#a2281e"/><path d="M266.5,140.7c-5.6-8.3-12.6-16.1-10.9-27.4,2.3-16,11.7-25.5,28.1-28.2,12.5-2,28.2,6.7,34.6,19.2,10.6,20.7,3.3,38.4-18.1,45.9-7,2.4-13-.5-19.5-1.6Z" transform="translate(-9.4 -9.2)" style="fill:#a2281e"/><path d="M212.8,170.7l5.1-1.2c17.5-3.7,26.4-.1,33.4,13.4s4.6,29.9-7.1,40.1-25.9,13.2-40.9,6.7c-12.7-5.5-18-22-12.2-38.2,1.5-4.3,3.8-8.3,5.7-12.4A70.8,70.8,0,0,1,212.8,170.7Z" transform="translate(-9.4 -9.2)" style="fill:#a2281e"/><path d="M208.4,311c-17.8-1.7-30.4-9.2-34.8-28.2-3.4-14.8.8-29.5,12-35.4s33.1-2.6,41.8,7.5c11.5,13.3,11.6,36.1.3,48.7A80.9,80.9,0,0,1,208.4,311Z" transform="translate(-9.4 -9.2)" style="fill:#a2281e"/><path d="M212.8,170.7a70.8,70.8,0,0,0-16,8.4c-6.5-9.6-16.3-9.7-28-8.2,4.9-7.9,11.3-12.7,13-20.4l12.1,4.6c4.3,4.1,8.6,3.5,12.9.1a2.4,2.4,0,0,1,1.7-1c1.1,0.8,1.8.3,2.4-.6l6.4,0.2C217.7,160.1,212,164.5,212.8,170.7Z" transform="translate(-9.4 -9.2)" style="fill:#f9b766"/><path d="M208.4,311a80.9,80.9,0,0,0,19.3-7.4c5.1,8.3,13.2,12.5,22.2,15.8-3.9,7.8-14,6.6-18,13.5-8.6-7.2-18.5-9.8-29.5-8.8C205.1,320.2,209.1,316.6,208.4,311Z" transform="translate(-9.4 -9.2)" style="fill:#f9b766"/><path d="M266.5,140.7l14.2,7.9-12.6,11.6c-4.4-5.5-8.3-10.3-13.8-14A24.2,24.2,0,0,1,266.5,140.7Z" transform="translate(-9.4 -9.2)" style="fill:#f9b766"/><path d="M330.2,237c-1.6-4.5-4.6-8-7.9-11.2,4-.2,7.6-4,12.1-1.4C334.9,229.3,331,232.6,330.2,237Z" transform="translate(-9.4 -9.2)" style="fill:#f9b766"/><path d="M276.1,235.9l-4.5,12.7c-2.4-.4-6.1.8-4.9-4.1S269.7,235.2,276.1,235.9Z" transform="translate(-9.4 -9.2)" style="fill:#f9b766"/><path d="M298.3,156.6c-1.7,1.3-3,1.2-4,.1a1.4,1.4,0,0,1,.6-2.3C296.5,153.9,297.3,154.9,298.3,156.6Z" transform="translate(-9.4 -9.2)" style="fill:#f9b766"/><path d="M206.8,155.3c-4.3,3.4-8.6,4-12.9-.1h12.9Z" transform="translate(-9.4 -9.2)" style="fill:#fccf97"/><path d="M210.9,153.8c-0.6,1-1.3,1.4-2.4.6Z" transform="translate(-9.4 -9.2)" style="fill:#bd7636"/></svg>