<?xml version="1.0" encoding="utf-8"?>
<!-- Generator: Adobe Illustrator 19.2.1, SVG Export Plug-In . SVG Version: 6.00 Build 0)  -->
<svg version="1.1" id="Layer_1" xmlns="http://www.w3.org/2000/svg" xmlns:xlink="http://www.w3.org/1999/xlink" x="0px" y="0px"
	 viewBox="0 0 225.4 93.7" enable-background="new 0 0 225.4 93.7" xml:space="preserve">
<rect x="212.9" y="-483.2" fill="#513F99" stroke="#000000" stroke-miterlimit="10" width="281.5" height="189.4"/>
<rect x="212.9" y="-293.8" fill="#91C184" stroke="#000000" stroke-miterlimit="10" width="281.5" height="189.4"/>
<rect x="39.9" y="-483.2" fill="#F57E2D" stroke="#000000" stroke-miterlimit="10" width="245" height="378.7"/>
<text transform="matrix(1 0 0 1 9.9102 37)"><tspan x="0" y="0" fill="#BABABA" font-family="'MuseoSans-700'" font-size="52px">e</tspan><tspan x="0" y="24" fill="#BABABA" font-family="'MuseoSans-700'" font-size="52px">c</tspan></text>
<g>
	<path fill="#FFFFFF" d="M0,0h24.4C46.6,0,61,13.1,61,35.8c0,22.6-14.4,36-36.6,36H0V0z M23.7,60.5c14.5,0,23.8-8.6,23.8-24.7
		c0-16-9.5-24.5-23.8-24.5H13v49.3H23.7z"/>
	<path fill="#FFFFFF" d="M60.5,20.2h12.8v30.5c0,6.3,1.6,10.5,8,10.5c9.3,0,14.4-8.2,14.4-17.4V20.2h12.8v51.5H96.3v-5.9
		c0-2,0.2-3.6,0.2-3.6h-0.2c-2.5,5.4-9.1,10.7-17.9,10.7c-11,0-17.9-5.6-17.9-19.6V20.2z"/>
	<path fill="#FFFFFF" d="M112.7,56.4c0,0,5.7,5.7,14,5.7c3.6,0,6.8-1.6,6.8-4.6c0-7.7-25-6.7-25-23.2c0-9.6,8.6-15.1,19.7-15.1
		c11.6,0,17.3,5.9,17.3,5.9l-4.7,9.5c0,0-4.7-4.4-12.6-4.4c-3.3,0-6.6,1.4-6.6,4.6c0,7.3,25,6.4,25,22.9c0,8.6-7.5,15.5-19.7,15.5
		c-12.8,0-20-7.6-20-7.6L112.7,56.4z"/>
	<path fill="#FFFFFF" d="M148.6,31.2h-6.7V21h7V6.2h12.5V21h11.7v10.2h-11.7v20c0,8.5,6.7,9.7,10.2,9.7c1.4,0,2.3-0.2,2.3-0.2v11.2
		c0,0-1.5,0.3-3.9,0.3c-7.2,0-21.4-2.1-21.4-19.4V31.2z"/>
	<path fill="#FFFFFF" d="M177.4,80.7c0,0,2.8,2.1,5.8,2.1c3.5,0,7-2.1,8.9-6.7l1.9-4.5L172.2,21h14.4l10.8,29.7c1,2.7,1.9,7,1.9,7
		h0.2c0,0,0.8-4,1.7-6.8L211.4,21h14l-23,59.3c-3.6,9.4-10.8,13.4-18.6,13.4c-6.2,0-10.7-3.3-10.7-3.3L177.4,80.7z"/>
</g>
</svg>
