<svg id="Layer_1" data-name="Layer 1" xmlns="http://www.w3.org/2000/svg" viewBox="0 0 225.4 93.7"><title>ecDusty-logo</title><path d="M25.1,9.9c7.6,0,11.8,5.6,11.8,12.6,0,0.8-.2,2.5-0.2,2.5H18.4c0.4,4.6,4,7,8,7A12.8,12.8,0,0,0,34,29.1l2.5,4.7a16.8,16.8,0,0,1-10.7,3.8c-8.8,0-14.2-6.3-14.2-13.9S17.2,9.9,25.1,9.9Zm5.1,10.6C30.1,16.9,27.9,15,25,15s-5.7,2.1-6.3,5.5H30.2Z" style="fill:#bababa"/><path d="M26,33.9c6.9,0,10.2,4,10.2,4l-2.9,4.5a10.5,10.5,0,0,0-6.9-2.9,7.9,7.9,0,0,0-8.1,8.2A8,8,0,0,0,26.6,56a12.1,12.1,0,0,0,7.8-3.4l2.5,4.7A15.1,15.1,0,0,1,26,61.6c-8.8,0-14.4-6.2-14.4-13.9S17.2,33.9,26,33.9Z" style="fill:#bababa"/><path d="M0,0H24.4C46.6,0,61,13.1,61,35.8s-14.4,36-36.6,36H0V0ZM23.7,60.5c14.5,0,23.8-8.6,23.8-24.7S38,11.3,23.7,11.3H13V60.6H23.7Z" style="fill:#fff"/><path d="M60.5,20.2H73.3V50.7c0,6.3,1.6,10.5,8,10.5,9.3,0,14.4-8.2,14.4-17.4V20.2h12.8V71.7H96.3V65.8a32.4,32.4,0,0,1,.2-3.6H96.3c-2.5,5.4-9.1,10.7-17.9,10.7-11,0-17.9-5.6-17.9-19.6V20.2Z" style="fill:#fff"/><path d="M112.7,56.4a21.6,21.6,0,0,0,14,5.7c3.6,0,6.8-1.6,6.8-4.6,0-7.7-25-6.7-25-23.2,0-9.6,8.6-15.1,19.7-15.1s17.3,5.9,17.3,5.9l-4.7,9.5a19.5,19.5,0,0,0-12.6-4.4c-3.3,0-6.6,1.4-6.6,4.6,0,7.3,25,6.4,25,22.9,0,8.6-7.5,15.5-19.7,15.5a28.9,28.9,0,0,1-20-7.6Z" style="fill:#fff"/><path d="M148.6,31.2h-6.7V21h7V6.2h12.5V21h11.7V31.2H161.4v20c0,8.5,6.7,9.7,10.2,9.7a11.7,11.7,0,0,0,2.3-.2V71.9a21.9,21.9,0,0,1-3.9.3c-7.2,0-21.4-2.1-21.4-19.4V31.2h0Z" style="fill:#fff"/><path d="M177.4,80.7a11.2,11.2,0,0,0,5.8,2.1c3.5,0,7-2.1,8.9-6.7l1.9-4.5L172.2,21h14.4l10.8,29.7a62.1,62.1,0,0,1,1.9,7h0.2s0.8-4,1.7-6.8L211.4,21h14l-23,59.3c-3.6,9.4-10.8,13.4-18.6,13.4a19.7,19.7,0,0,1-10.7-3.3Z" style="fill:#fff"/></svg>